#!OML:ASF E:/inclinewalkrobotboard/Project1/Captureday1/Session1/subject1.ASF
:FULLY-SPECIFIED
:DEGREES
26
root 0 0 0 10.004918723398866 40.88989908666262 3.0933421866348
lowerback -7.993604312429515 -4.442662565400729 -4.476941612579995
upperback -10.233828772116144 -5.4603936544891996 8.331086810061159
thorax -5.638183016557996 -1.9458783339091006 11.448168882355755
lowerneck -3.199207634861998 -9.4595698654653 -7.457691746764492
upperneck 33.53190407572607 -11.748337871948547 -1.0313588710843558
head 12.081447879590677 -6.146774831190379 -0.6075165993896332
rclavicle 2.975111608951511E-15 -3.6873780951717823E-16
rhumerus 76.68518995274007 -13.846399811895456 -91.66287082294903
rradius 0.8158563308598978
rwrist 69.23852898201761
rhand 25.25435399991177 -16.777326812859563
rfingers 7.125019999999956
rthumb 49.58272227003036 -40.29725983451333
lclavicle 7.915336721706609E-15 1.4507238702159861E-15
lhumerus 44.091188170703084 47.89363736836433 8.757292190609391
lradius 5.499043120515733
lwrist -44.475735361385695
lhand -7.742954646862188 29.1884178105002
lfingers 7.125019999999938
lthumb 18.26867129968002 59.657149919425
rfemur 55.33998903913946 -106.34906676016523 -84.60088297900107
rtibia 35.139513113501266
rfoot -90.6281095346684 7.327885547234516
rtoes 52.449909871865316
lfemur -73.22568394389302 14.319599692630307 -64.52724946046852
ltibia 72.28293108523562
lfoot 11.833671674243842 29.50777448485369
ltoes -9.347674944104883
27
root 0 0 0 9.289713899431316 39.35098936740715 3.7705210978712387
lowerback -7.753385690286908 -4.526484484713301 -4.684408924724974
upperback -10.129502349546307 -5.5843928847029005 8.205200475550809
thorax -5.698914505752757 -1.9778536854173485 11.42876860966534
lowerneck -3.2658649198327323 -9.361342282861115 -7.368290349167652
upperneck 33.46314808837124 -11.651641984030762 -0.8906506353971375
head 12.05980294489354 -6.08864674470961 -0.564529931337834
rclavicle 3.148365772945245E-15 -2.3856353325723057E-16
rhumerus 80.63094618792053 -13.970716070468782 -92.45644078419599
rradius 1.9675712709658164
rwrist 68.52269650676763
rhand 24.755866054895165 -16.641400772884865
rfingers 7.125019999999957
rthumb 49.1020970114111 -40.238780457313204
lclavicle 7.776168174465347E-15 2.126351995627123E-15
lhumerus 44.61232746381409 47.713246808639866 8.54690555692543
lradius 5.7988845674373835
lwrist -44.330068894779984
lhand -7.743386672170613 29.14907305163926
lfingers 7.125019999999938
lthumb 18.266941264974314 59.60653284891536
rfemur 101.13491499869812 -152.02165384728207 -127.54716865638471
rtibia 34.71293719596471
rfoot -90.36989713792514 2.6296957297585735
rtoes 53.175800957335305
lfemur -74.81557472728852 15.109848015585992 -64.39695749030246
ltibia 72.56483354579753
lfoot 10.800222038082627 30.218723229035916
ltoes -7.8683977277364665
28
root 0 0 0 8.094448312162474 36.96255645487311 4.820563324200588
lowerback -7.367442443159516 -4.64516523900844 -4.983151251109989
upperback -9.949900550835075 -5.755979163676434 7.998622146215968
thorax -5.78540526735513 -2.0186276293832384 11.370900155923428
lowerneck -3.39388580767318 -9.206088732982412 -7.224198010717952
upperneck 33.334924156441346 -11.496430822367119 -0.6749152815739654
head 12.023823081301243 -5.995856164609852 -0.4988907217210805
rclavicle 3.262329370113275E-15 -1.0671515869919851E-16
rhumerus 87.02690978723807 -14.098562115850976 -93.82641720888972
rradius 3.8212939307056892
rwrist 67.45391011021351
rhand 23.92079609583114 -16.403112790513873
rfingers 7.125019999999959
rthumb 48.296120907129605 -40.13189425201235
lclavicle 7.497553817643421E-15 3.0457192066511674E-15
lhumerus 45.47680169075007 47.37109261025856 8.191379159259611
lradius 6.286976047983995
lwrist -44.06498090533661
lhand -7.703639657987869 29.110362007189025
lfingers 7.125019999999938
lthumb 18.302305681931863 59.54236160149713
rfemur 135.46104364888762 -185.6233628452786 -158.94831108163362
rtibia 34.237762328072364
rfoot -89.3172447633542 -0.9155152592329294
rtoes 53.16732797117169
lfemur -76.78270416156352 16.07300384842483 -64.18851394593972
ltibia 72.84955982830748
lfoot 9.34795561618387 31.123730782924724
ltoes -5.9998336378483454
29
root 0 0 0 6.470600685777363 33.910850555451375 6.158354126502042
lowerback -6.8624103517918975 -4.785394460169753 -5.340073542579707
upperback -9.700241856184189 -5.953458268982529 7.721214472331408
thorax -5.885054284605291 -2.0618157282503056 11.265532303713556
lowerneck -3.5875589069815934 -9.004947152502982 -7.034937433236828
upperneck 33.14942332790149 -11.293446640773935 -0.4010016080258936
head 11.977153290251167 -5.874764630242228 -0.4156903170746946
rclavicle 3.1604477989350247E-15 -1.9622390955914227E-16
rhumerus 94.51972413016183 -14.133702069785418 -95.42671581506293
rradius 6.082264011351164
rwrist 66.22012120626312
rhand 22.886004981320703 -16.074370555023712
rfingers 7.125019999999962
rthumb 47.29652475099852 -39.96716211532125
lclavicle 7.17713998962013E-15 3.7234664344926295E-15
lhumerus 46.42872332228426 46.89842950061953 7.830531074576065
lradius 6.892340115788432
lwrist -43.67594536399635
lhand -7.640789879685516 29.04950134027989
lfingers 7.125019999999939
lthumb 18.358640339279482 59.44387537939447
rfemur 149.47909685830695 -198.6790771453122 -170.56795406742236
rtibia 33.843268012096026
rfoot -88.36268807788004 -2.5147607639027854
rtoes 51.986060295685384
lfemur -78.51557327353646 16.897914074551508 -63.91306596555628
ltibia 73.03144734234084
lfoot 7.774410477447848 31.946655787281784
ltoes -4.295817920534256
